<?xml version="1.0" encoding="utf-8"?>
<!-- Generator: Adobe Illustrator 18.1.1, SVG Export Plug-In . SVG Version: 6.00 Build 0)  -->
<!DOCTYPE svg PUBLIC "-//W3C//DTD SVG 1.1//EN" "http://www.w3.org/Graphics/SVG/1.1/DTD/svg11.dtd">
<svg version="1.1" id="Layer_1" xmlns="http://www.w3.org/2000/svg" xmlns:xlink="http://www.w3.org/1999/xlink" x="0px" y="0px"
	 viewBox="-49 141 512 512" enable-background="new -49 141 512 512" xml:space="preserve">
<g>
	<path d="M78.9,534.1l24.4-18.6c-37-30.1-60.6-75.9-60.6-127.2c0-90.4,73.5-163.9,163.9-163.9S370.5,298,370.5,388.4
		c0,50.6-23,95.8-59.1,125.9l24.4,18.6c39.7-35.5,64.7-87.1,64.7-144.5c0-106.9-87-193.9-193.9-193.9s-193.9,87-193.9,193.9
		C12.7,446.4,38.4,498.6,78.9,534.1z"/>
	<path d="M138.8,432.1c-13.7-15.8-22-36.3-22-58.8c0-49.5,40.3-89.8,89.8-89.8c49.5,0,89.8,40.3,89.8,89.8
		c0,21.7-7.8,41.7-20.7,57.3l21.7,17.7c16.8-20.4,27-46.5,27-74.9c0-64.9-52.8-117.8-117.8-117.8S88.8,308.4,88.8,373.4
		c0,29.1,10.6,55.9,28.3,76.4L138.8,432.1z"/>
	<circle cx="206.6" cy="362.3" r="44.3"/>
	<path d="M211.5,599.4h-9.8c-12.8,0-23.3-10.5-23.3-23.3l-12-132.7c0-12.8,10.5-23.3,23.3-23.3h33.8c12.8,0,23.3,10.5,23.3,23.3
		l-12,132.7C234.9,588.9,224.4,599.4,211.5,599.4z"/>
</g>
</svg>
