<?xml version="1.0" encoding="UTF-8" standalone="no"?>
<svg width="575px" height="575px" viewBox="0 0 575 575" version="1.1" xmlns="http://www.w3.org/2000/svg" xmlns:xlink="http://www.w3.org/1999/xlink" xmlns:sketch="http://www.bohemiancoding.com/sketch/ns">
    <!-- Generator: Sketch 3.3.1 (12002) - http://www.bohemiancoding.com/sketch -->
    <title>podcast</title>
    <desc>Created with Sketch.</desc>
    <defs></defs>
    <g id="Page-1" stroke="none" stroke-width="1" fill="none" fill-rule="evenodd" sketch:type="MSPage">
        <g id="podcast" sketch:type="MSArtboardGroup" fill="#000000">
            <g id="Imported-Layers" sketch:type="MSLayerGroup" transform="translate(62.000000, 52.000000)">
                <path d="M77.5905501,394.604032 L105.924712,373.023879 C63.070437,338.137397 35.6405938,284.974722 35.6405938,225.515032 C35.6405938,120.68853 120.870319,35.407367 225.63101,35.407367 C330.391702,35.407367 415.621427,120.68853 415.621427,225.515032 C415.621427,284.163813 388.937067,336.688433 347.084499,371.588837 L375.346779,393.115626 C421.378923,351.900805 450.402918,292.039722 450.402918,225.515032 C450.402918,101.49818 349.570216,0.60441133 225.63101,0.60441133 C101.691805,0.60441133 0.859102828,101.49818 0.859102828,225.515032 C0.859102828,292.84367 30.5880026,353.349768 77.5905501,394.604032" id="Fill-1" sketch:type="MSShapeGroup"></path>
                <path d="M147.003972,276.251941 C131.152887,257.969948 121.547398,234.127603 121.547398,208.082232 C121.547398,150.655034 168.239231,103.934387 225.63101,103.934387 C283.022789,103.934387 329.714622,150.655034 329.714622,208.082232 C329.714622,233.305094 320.705057,256.4595 305.7409,274.500192 L330.898352,295.011894 C350.428159,271.373727 362.177347,241.075433 362.177347,208.082232 C362.177347,132.744273 300.922504,71.4516281 225.63101,71.4516281 C150.339517,71.4516281 89.0846735,132.744273 89.0846735,208.082232 C89.0846735,241.897943 101.432103,272.879534 121.84536,296.763643 L147.003972,276.251941" id="Fill-2" sketch:type="MSShapeGroup"></path>
                <path d="M277.029938,195.282865 C277.029938,223.687877 254.018504,246.714672 225.63101,246.714672 C197.243517,246.714672 174.232082,223.687877 174.232082,195.282865 C174.232082,166.879012 197.243517,143.852217 225.63101,143.852217 C254.018504,143.852217 277.029938,166.879012 277.029938,195.282865" id="Fill-3" sketch:type="MSShapeGroup"></path>
                <path d="M231.311987,470.354985 L219.950033,470.354985 C205.060077,470.354985 192.87844,458.16583 192.87844,443.267845 L178.965843,289.270567 C178.965843,274.371421 191.147481,262.182266 206.037437,262.182266 L245.224584,262.182266 C260.11454,262.182266 272.296177,274.371421 272.296177,289.270567 L258.383581,443.267845 C258.383581,458.16583 246.201943,470.354985 231.311987,470.354985" id="Fill-4" sketch:type="MSShapeGroup"></path>
            </g>
        </g>
    </g>
</svg>